<svg xmlns="http://www.w3.org/2000/svg" xmlns:xlink="http://www.w3.org/1999/xlink" width="1920" zoomAndPan="magnify" viewBox="0 0 1440 809.999993" height="1080" preserveAspectRatio="xMidYMid meet" version="1.0">
<defs>
    <clipPath id="d1ae7a17b2">
        <path d="M 387.78125 72.78125 L 1052.28125 72.78125 L 1052.28125 737.28125 L 387.78125 737.28125 Z M 387.78125 72.78125 " clip-rule="nonzero"/>
    </clipPath>
    <clipPath id="0be6f75923">
        <path d="M 387.78125 72.78125 L 1052.210938 72.78125 L 1052.210938 737.210938 L 387.78125 737.210938 Z M 387.78125 72.78125 " clip-rule="nonzero"/>
    </clipPath>
    <clipPath id="af9b630ff8">
        <path d="M 480.699219 72.78125 C 429.4375 72.78125 387.78125 114.4375 387.78125 165.699219 L 387.78125 644.296875 C 387.78125 695.554688 429.4375 737.210938 480.699219 737.210938 L 959.296875 737.210938 C 1010.683594 737.210938 1052.210938 695.554688 1052.210938 644.296875 L 1052.210938 165.699219 C 1052.210938 114.4375 1010.554688 72.78125 959.296875 72.78125 Z M 480.699219 72.78125 " clip-rule="nonzero"/>
    </clipPath>
</defs>
<g clip-path="url(#d1ae7a17b2)">
    <path fill="#67999c" d="M 480.699219 72.78125 C 429.4375 72.78125 387.78125 114.4375 387.78125 165.699219 L 387.78125 644.296875 C 387.78125 695.554688 429.4375 737.210938 480.699219 737.210938 L 959.296875 737.210938 C 1010.683594 737.210938 1052.210938 695.554688 1052.210938 644.296875 L 1052.210938 165.699219 C 1052.210938 114.4375 1010.554688 72.78125 959.296875 72.78125 Z M 480.699219 72.78125 " fill-opacity="1" fill-rule="nonzero"/>
</g>
<g clip-path="url(#0be6f75923)">
    <g clip-path="url(#af9b630ff8)">
        <path fill="#186eb1" d="M 55.566406 404.996094 L 719.996094 -259.433594 L 1384.425781 404.996094 L 719.996094 1069.425781 Z M 55.566406 404.996094 " fill-opacity="1" fill-rule="nonzero"/>
    </g>
</g>
<path fill="#ffffff" d="M 928.800781 542.292969 L 928.667969 542.292969 L 863.003906 541.90625 L 858.722656 541.90625 C 865.46875 549.042969 872.21875 558.515625 872.867188 567.730469 C 873.257812 577.203125 875.722656 586.417969 879.875 594.851562 L 895.316406 624.441406 L 911.148438 595.113281 C 915.433594 586.675781 918.027344 577.460938 918.546875 567.988281 C 919.195312 558.777344 926.203125 549.433594 932.953125 542.292969 Z M 896.875 588.363281 L 894.148438 588.363281 C 890.515625 588.363281 887.53125 585.378906 887.53125 581.746094 C 887.53125 578.113281 890.515625 575.128906 894.148438 575.128906 L 896.875 575.128906 C 900.507812 575.128906 903.492188 578.113281 903.492188 581.746094 C 903.625 585.378906 900.636719 588.363281 896.875 588.363281 Z M 896.875 588.363281 " fill-opacity="1" fill-rule="nonzero"/>
<path fill="#ffffff" d="M 922.699219 410.445312 L 922.050781 528.929688 L 869.753906 528.667969 L 870.402344 410.058594 Z M 922.699219 410.445312 " fill-opacity="1" fill-rule="nonzero"/>
<path fill="#ffffff" d="M 932.953125 242.78125 L 932.042969 397.210938 L 929.449219 397.210938 L 863.785156 396.820312 L 861.316406 396.820312 L 862.226562 242.394531 Z M 932.953125 242.78125 " fill-opacity="1" fill-rule="nonzero"/>
<path fill="#ffffff" d="M 933.210938 210.210938 L 933.082031 229.546875 L 862.226562 229.15625 L 862.355469 209.820312 C 862.484375 192.171875 876.761719 178.027344 894.410156 178.027344 L 901.417969 178.027344 C 919.066406 178.027344 933.339844 192.5625 933.210938 210.210938 Z M 933.210938 210.210938 " fill-opacity="1" fill-rule="nonzero"/>
</svg>